<?xml version="1.0" encoding="utf-8"?>
<!-- Generator: Adobe Illustrator 22.1.0, SVG Export Plug-In . SVG Version: 6.00 Build 0)  -->
<svg version="1.1" id="Layer_1" xmlns="http://www.w3.org/2000/svg" xmlns:xlink="http://www.w3.org/1999/xlink" x="0px" y="0px"
	 viewBox="0 0 127.9 117" style="enable-background:new 0 0 127.9 117;" xml:space="preserve">
<style type="text/css">
	.st0{fill:#FFFFFF;}
	.st1{fill:none;stroke:#020203;stroke-width:0.5;stroke-miterlimit:10;}
	.st2{fill:#020203;}
	.st3{fill:none;stroke:#1E1E1C;stroke-width:0.5;stroke-miterlimit:10;stroke-dasharray:1,1;}
	.st4{fill:#1E1E1C;}
	.st5{fill:none;stroke:#020203;stroke-miterlimit:10;}
	.st6{fill:none;stroke:#020203;stroke-miterlimit:10;stroke-dasharray:1,1;}
	.st7{fill:#FFFFFF;stroke:#020203;stroke-width:0.5;stroke-miterlimit:10;}
	.st8{fill:#020203;stroke:#020203;stroke-width:0.5;stroke-miterlimit:10;}
	.st9{fill:#FFFFFF;stroke:#020203;stroke-miterlimit:10;}
</style>
<g>
	<g>
		<path class="st5" d="M58,64.8c0.6,1.4,0.3,3.2-0.5,4.5c-0.8,1.3-2.1,2.3-3.6,2.9"/>
		<path class="st5" d="M63.4,66.4c-0.1,1.4,0.2,2.8,0.8,3.9c0.7,1.2,1.9,2.1,3.3,2.2c0.6,0.1,1.3,0,1.5,0.5"/>
		<path class="st5" d="M53.4,72.1c0.4,4,1.1,8,1.8,11.9c0,0.2,0.1,0.3,0,0.5c-0.1,0.3-0.4,0.4-0.7,0.4c-0.2,0-0.5,0-0.7-0.1
			c-1-0.4-1.3-1.7-1.5-2.8c-0.4-2.8-0.8-5.5-1.3-8.3c-0.1-0.5-0.1-1,0-1.5c0.1-0.5,0.4-0.9,0.9-1s1,0.3,1,0.8"/>
		<path class="st5" d="M69.2,84.9c0.3-2.8,0.6-5.5,0.9-8.3c0.1-0.7,0.2-1.5,0.1-2.2c0-0.7-0.2-1.3,0-2c0.1-0.7,0.6-1.3,1.3-1.3
			c0.1,0,0.3,0,0.4,0.1c0.2,0.1,0.2,0.4,0.2,0.6c-0.2,4.3-0.5,8.6-1.2,12.8c0,0.3-0.1,0.6-0.3,0.8s-0.6,0.3-0.8,0.1"/>
		<path class="st5" d="M54.7,80.7c2.4,0.5,4.8,0.9,7.2,0.5c2.6-0.4,5-1.6,7.6-1.8"/>
		<path class="st5" d="M51.7,80.9c-0.4-0.3-0.7-0.6-1.3,0.1c-0.9,1.5-0.3,3.1-0.3,4.6c0.3,3.1,1.2,6.2,0.9,9.3
			c-0.3,2.5-1.9,4.6-2.8,6.8c-0.9,2.8-0.3,5.9-0.2,8.8"/>
		<path class="st5" d="M72.1,79.4c0.6,0.1,1.6-0.3,1.6,0.4c0,6.8-0.9,14.2,1.9,20.7c1.5,3.1,0.3,6.8,0.5,10.2"/>
		<path class="st5" d="M54.5,72.3c0.9,1.8,2.6,3.2,4.5,3.8c1.9,0.6,4.1,0.5,5.9-0.5c1.4-0.7,2.7-2,2.8-3.6"/>
		<path class="st5" d="M54.4,75.6c2,1.5,4.4,2.7,7,2.7c3.1,0,6-2.1,7.2-4.9"/>
		<path class="st5" d="M72.6,72.9c2.6,0.8,5.5,0.5,8.2-0.4c2.6-0.8,5.1-2.2,7.5-3.6c0,3.9,1.4,7.8,3.8,10.9c-3.2,2-7.3,1.9-10.9,3
			c-0.4,0.1-0.8,0.3-1,0.6c-0.2,0.2-0.3,0.5-0.4,0.8c-1.5,5.4-2.9,10.9-4.2,16.3"/>
		<path class="st5" d="M88.8,69c1.6-0.4,3.2-0.9,4.8-1.3c0.6-0.2,1.1-0.3,1.6-0.7c0.4-0.3,0.7-0.8,1-1.2c2.5-3.7,5-7.4,7.5-11.1
			c-0.5-1.4-0.7-2.8-0.7-4.3c0-0.4,0.1-0.8,0.3-1.1c0.2-0.3,0.5-0.5,0.8-0.6c1.3-0.6,2.7-0.8,4-0.7c0.7,0,1.6,0.6,1.2,1.2
			c-0.1,0.2-0.3,0.3-0.5,0.3c-0.9,0.4-1.8,0.7-2.8,1.1"/>
		<path class="st5" d="M89.9,74.7c2.4-1.5,5.3-2.4,8.1-2.4c0.3,0,0.6,0,0.8-0.2c0.4-0.3,0.4-0.8,0.5-1.3c0.2-0.8,0.8-1.5,1.3-2.1
			c3.3-3.7,5.9-8.1,7.6-12.7c1.4-0.2,2.6-1.2,3.2-2.4c-1.3,0.6-3,0.4-4.2-0.4c1.4-0.6,3.2-0.3,4.4,0.7"/>
		<path class="st5" d="M110.1,52.9c-1-0.2-1.9-0.7-2.5-1.5c1.1-0.4,2.3-0.3,3.4,0.2c0.3,0.1,0.6,0.3,0.7,0.6
			c0.2,0.4,0.1,0.9-0.2,1.2c-0.3,0.3-0.9,0.3-1.2,0"/>
		<path class="st5" d="M111.9,52c0.6-0.6,0.4-1.8-0.3-2.3c-0.7-0.6-1.7-0.6-2.5-0.4"/>
		<path class="st5" d="M108.3,49.9c0.1,0.3,0.2,0.5,0.4,0.7"/>
		<path class="st5" d="M107.9,47.6c-0.1-0.3,0.2-0.6,0.5-0.7s0.6,0,0.9,0.1c0.8,0.3,1.7,0.7,2.4,1.1c0.4,0.2,0.8,0.5,0.9,0.9
			c0.1,0.4-0.3,1-0.7,0.8"/>
		<path class="st5" d="M107.3,53.9c-0.7,0.7-1.1,1.6-1.2,2.6c0.6,0.1,1.2-0.1,1.5-0.5c0.4-0.5,0.4-1.1,0.2-1.6
			c-0.7,0.5-1.2,1.2-1.4,2c0.3-0.4,0.6-0.9,1-1.3"/>
		<path class="st5" d="M106.8,53.2c-0.4,0.7-0.7,1.5-0.7,2.3"/>
		<path class="st5" d="M106.7,47.6c0.3-0.9,0.6-1.7,0.8-2.6c0.5-0.1,1,0,1.5,0.1c0.2,0,0.4,0.1,0.4,0.3c0,0.1,0,0.2,0,0.3
			c-0.1,0.4-0.3,0.8-0.4,1.2c-0.1-0.3-0.2-0.7-0.4-1c-0.1-0.1-0.2-0.3-0.4-0.3c-0.1,0-0.2,0.2-0.3,0.3c-0.2,0.5-0.5,1.1-0.7,1.6
			c0.1-0.7,0.7-1.3,1.4-1.5"/>
		<path class="st5" d="M106,56.4c-0.2,0.2-0.6,0.1-0.7-0.1s-0.2-0.5-0.2-0.8c0-0.4,0-0.7,0-1.1c0-0.4,0.1-0.8,0.3-1
			c0.2-0.3,0.8-0.3,0.9,0.1c-0.5,0.7-0.8,1.5-0.8,2.4c0,0.3-0.1,0.7-0.4,0.8"/>
		<path class="st5" d="M107.8,44.4c1.2-3.5,2.1-7,2.9-10.6c-1.2-0.8-2.4-1.8-3.3-2.9c1.2-2.7,2.4-5.4,3.5-8.1
			c0.2-0.4,0.3-0.7,0.7-0.9c0.4-0.3,1-0.1,1.5,0c2.2,0.6,4.4,1.3,6.6,1.9c-0.2,3.2-0.8,6.3-1.6,9.4c-0.1,0.4-0.2,0.7-0.5,1
			c-0.2,0.2-0.5,0.2-0.8,0.3c-1.4,0.2-3-0.2-3.9,0.9c-0.2,0.3-0.3,0.6-0.5,0.9c-1.2,3-2.4,6-3.5,8.9"/>
		<path class="st5" d="M110.6,29.5c0.4-1.2,0.7-2.4,1.1-3.6c0.2-0.6,0.5-1.2,1-1.2c-0.3,1.8-0.9,3.6-1.9,5.2"/>
		<path class="st5" d="M112.7,30.7c0.4-1.9,1-3.7,1.8-5.5c0,2.1-0.7,4.2-1.8,6"/>
		<path class="st5" d="M115.2,31.3c0.2-2,0.8-3.9,1.8-5.7c0.4,1.9-0.1,3.9-1.3,5.4"/>
		<path class="st5" d="M48.7,99.4c-0.2-3.4-0.4-6.7-0.5-10.1c0-0.4,0-0.8-0.2-1.2c-0.2-0.3-0.4-0.5-0.6-0.7c-2.9-2.7-6-5.4-9.6-7
			c0.5-2.5,1-4.9,1.5-7.4c0.1-0.4,0.2-0.9,0.5-1.2c0.4-0.3,1-0.3,1.5-0.2c3,0.3,5.9,1,8.8,2"/>
		<path class="st5" d="M37.7,78.8c-3.2-1.8-6.4-3.6-9.6-5.5c-0.8-0.4-1.5-0.9-2.3-1.3c-1-0.6-2.1-1.2-3.3-1c-0.5,0.1-1,0.3-1.6,0.3
			c-0.5,0-1.1-0.5-0.9-1c0-0.1,0.1-0.2,0.2-0.4c0.7-1.1,0.1-2.6-0.4-3.8c-1.7-3.6-3.1-7.4-4.3-11.2c-0.5-1.5-0.6-3-2.1-3.8
			c-0.7-0.4-1.6-0.5-2.3-0.8c-0.7-0.2-1.4-0.5-2-0.8c-0.6-0.3-1.3-0.7-1.5-1.4c0-0.2,0-0.5,0.2-0.7c0.2-0.2,0.5-0.1,0.8,0
			c0.2,0.1,0.4,0.4,0.6,0.5c0.4,0.3,0.8,0.5,1.3,0.6c-1.1-0.4-2.1-1-2.9-1.9c-0.1-0.1-0.1-0.1-0.1-0.2c0-0.2,0.3-0.3,0.5-0.2
			c0.7,0.1,1.4,0.5,2,1C9,46.6,8.2,46,7.3,45.4c0.4-0.4,1-0.4,1.5-0.3s1,0.4,1.4,0.7c-0.6-0.3-1.1-0.6-1.7-0.9
			c-0.1-0.1-0.3-0.2-0.3-0.4c0-0.1,0.2-0.2,0.3-0.2c1-0.3,2.1,0,2.8,0.7"/>
		<path class="st5" d="M38.8,72.3c-3.7-2.2-7.5-4.1-11.5-5.7c-0.7-0.3-1.4-0.5-1.8-1.1c-0.3-0.4-0.4-0.8-0.5-1.3
			c-0.7-2.4-2.3-4.4-3.5-6.5c-1.1-1.9-2.1-3.9-2.9-6c-0.2-0.4-0.3-0.9-0.3-1.4c-0.1-2.2,2.7-3.8,2.3-5.9c-0.9-0.2-2,0.3-2.3,1.2"/>
		<path class="st5" d="M20.9,46.1c-3.5,1-8.2,1-11.7,0c-0.4-0.1-0.7-0.2-0.9-0.4c-0.4-0.4,0.1-0.9-0.1-1.3c4.3,0.7,9,0.7,13.2,0
			c0.1,0.6,0.2,1.1,0.1,1.7"/>
		<path class="st5" d="M9.5,44.3c-1.2,0-2.3-0.4-2.7-1c0.4-0.1,0.9-0.1,1.4-0.1c0.3,0,0.6,0.1,0.8,0C9.2,43.1,9.3,43,9.5,43
			c0.4-0.2,1.1-0.2,1.7-0.1c0.6,0.1,1.1,0.2,1.7,0.1c0.7-0.1,1.1-0.5,1.8-0.5c0.5,0,0.9,0.2,1.3,0.4c0.4,0.2,1,0.4,1.4,0.2
			c0.2-0.1,0.4-0.2,0.6-0.3c0.6-0.2,1.4,0.1,1.8,0.4c0.5-0.3,1.5-0.2,2.2-0.1c0.4,0.1,0.8,0.1,1,0.3s-0.1,0.5-0.5,0.4"/>
		<path class="st5" d="M9.1,42.5c-0.8-0.1-1.5-0.3-2-0.6c-0.2-0.1-0.4-0.2-0.3-0.4c0.1-0.2,0.7-0.3,1.1-0.3
			c4.1,0.1,8.2,0.2,12.3,0.3c0.3,0,0.7,0,1,0.1c0.6,0.2,0.6,0.7,0.5,1.1"/>
		<path class="st5" d="M8.3,40.7c-0.7,0-1.1-0.5-0.8-0.8c0.4-0.4,1.6-0.4,2.5-0.2c0.4,0.1,0.8,0.1,1,0.3c0.1,0.1,0.2,0.1,0.3,0.2
			c0.4,0.1,0.4-0.3,0.8-0.4c0.3-0.1,0.6,0.2,0.9,0.3c0.5,0.1,1-0.2,1.5-0.2c0.6-0.1,1.3,0.1,1.4,0.4c0.3-0.1,0.5-0.2,0.8-0.3
			c0,0.2,0.5,0.3,0.9,0.2c0.4,0,0.8-0.1,1.1,0c0.3,0.1,0.3,0.3,0.5,0.4s0.7,0.1,0.7,0c0.1,0.2,0.3,0.4,0.4,0.6"/>
		<path class="st5" d="M8.6,39.3c-0.2-0.8-0.4-1.6,0.4-2.2c0.6-0.5,1.8-0.8,2.9-0.9s2.4-0.1,3.5,0c1,0,2.2,0.1,2.9,0.5
			c0.3,0.2,0.5,0.4,0.7,0.6c0.7,0.9,1,1.9,0.9,2.9"/>
		<path class="st5" d="M10.5,38.2c0.1,0,0.1-0.1,0.2-0.1"/>
		<path class="st5" d="M13.8,37.4c0.1,0,0.1,0,0.2,0"/>
		<path class="st5" d="M16.5,38.7c0.1,0,0.1,0,0.2,0"/>
		<path class="st5" d="M54.6,98.4c-0.2-0.4-0.4-0.8-0.6-1.3c0-0.1-0.1-0.2-0.1-0.3c0-0.1,0.1-0.2,0.2-0.3c0.2-0.2,0.5-0.3,0.7-0.4"
			/>
		<path class="st5" d="M54.5,97.6c0.2-0.1,0.4-0.2,0.6-0.3"/>
		<path class="st5" d="M57.3,97.2c-0.2-0.4-0.3-0.7-0.5-1.1c-0.1-0.2-0.2-0.4-0.2-0.6s0-0.4,0.2-0.6c0.2-0.1,0.5-0.1,0.6,0.1
			c0.1,0.2-0.1,0.5-0.2,0.7c0,0,0,0.1,0,0.1c0,0.1,0.1,0.1,0.1,0.1c0.4,0.1,0.7,0.2,1.1,0.3"/>
		<path class="st5" d="M60.2,95.7c-0.2-0.2-0.4-0.3-0.5-0.6c-0.1-0.2-0.1-0.6,0.1-0.7c0.2-0.2,0.5-0.2,0.7-0.1
			c0.3,0.2,0.5,0.5,0.5,0.8c0,0.3-0.2,0.6-0.4,0.5"/>
		<path class="st5" d="M62.8,95.9c0.1-0.6,0.3-1.2,0.4-1.8c0,0,0-0.1,0-0.1c0,0,0.1,0,0.2,0c0.3,0.1,0.6,0.3,0.8,0.6
			c0.2,0.3,0.2,0.7,0.1,0.9c-0.2,0.3-0.6,0.4-0.9,0.2"/>
		<path class="st5" d="M65.4,96.9c0.5-0.4,0.9-0.8,1.4-1.2c0.2,0.7,0.2,1.5-0.1,2.1"/>
		<path class="st5" d="M65.9,96.8c0.2,0.1,0.3,0.2,0.5,0.3"/>
		<path class="st5" d="M68.9,97.6c0.1-0.2,0.3-0.5,0.5-0.6"/>
		<path class="st5" d="M70.8,99.6c-0.3-0.3-0.7-0.5-1.1-0.4c-0.1,0-0.1,0-0.2,0.1c0,0-0.1,0.1-0.1,0.1c-0.1,0.3,0,0.6,0.1,0.8
			c0,0.3,0,0.6-0.3,0.7c-0.2,0-0.4-0.1-0.5-0.2s-0.2-0.3-0.2-0.5"/>
		<path class="st5" d="M60.9,106.5c-1,0.2-1.9-0.6-2.7-1.4c-0.3-0.3-0.6-0.6-0.7-1c-0.2-0.4-0.2-1-0.1-1.4c0.3-1.3,1.1-2.5,2.3-3.1
			c1.2-0.6,2.7-0.5,3.7,0.4c0.5,0.4,0.9,1,1.2,1.5c0.4,0.7,0.8,1.6,0.7,2.4c-0.1,0.5-0.4,0.9-0.7,1.2c-0.6,0.7-1.3,1.2-2.2,1.4
			c-0.8,0.2-1.7,0.1-2.4-0.3"/>
		<path class="st5" d="M59.3,103.5c0.2,0.8,1,1.4,1.9,1.4c0.8,0,1.7-0.6,2-1.4"/>
		<path class="st5" d="M62.1,101.9C62.1,101.9,62.1,101.8,62.1,101.9"/>
	</g>
	<g id="_x33_yHvHP.tif_1_">
		<g>
			<path class="st2" d="M45.2,45.1c-0.1,0.4-0.3,0.9-0.4,1.3c0,0-0.1-0.1-0.1-0.1c-0.3,0.1-0.6,0.2-0.9,0.3c0-0.2-0.1-0.5-0.1-0.7
				c0-0.4,0.1-0.8,0.1-1.2c0.2-0.4,0.6-0.9,0.6-1.3c0-0.6,0.3-1.3-0.4-1.9c0.3-0.9-0.6-1.2-1.2-1.7c0.1-0.1,0.2-0.1,0.2-0.1
				c-0.1-0.4-0.2-0.8-0.4-1.2c0-0.1-0.1-0.1-0.1-0.2c0-0.8-0.1-1.7-0.1-2.5c0-0.1,0-0.2,0-0.3c-0.5-1.1,0.1-2,0.3-3
				c0.2-1,0.4-2,0.6-3c0.1-0.6,0.4-1.1,0.6-1.6c0.3-0.7,0.3-1.4,0-2.1c-0.3-0.6,0-1.1,0.2-1.6c0.4-0.9,1.1-1.7,1.1-2.7
				c0-1.4,0.9-2.2,1.6-3.1c0.1-0.2,0.4-0.3,0.6-0.4c-0.6-0.5-0.3-0.8,0.2-1.2c0.6-0.5,1.1-1.1,1.7-1.6c1.4-1.2,2.9-2,4.8-2
				c0.2,0,0.3-0.1,0.5-0.2c0.6-0.4,1.2-0.6,1.8-0.7c1.3-0.2,2.6-0.4,3.9-0.6c0.4-0.1,0.9,0.1,1.3,0.1c0.3,0,0.6,0.1,0.7,0
				c0.4-0.5,0.8-0.2,1.2-0.1c0.5,0.1,1,0,1.4,0.1c0.4,0.1,0.8,0.1,1.2,0.3c0.7,0.3,1.3,0.8,2,1.2c0.8,0.4,1.6,0.8,2.4,1.3
				c0.8,0.5,1.8,0.6,2.4,1.6c0.3,0.6,1.1,0.9,1.8,1.4c0.9,0.6,1.8,1.1,2.1,2.3c0,0.1,0.1,0.3,0.2,0.4c0.7,0.3,0.7,0.9,0.6,1.5
				c-0.2,1,0.3,1.7,0.9,2.4c0.6,0.7,0.9,1.3,0.6,2.3c-0.2,0.5,0,1.2,0.2,1.7c0.5,1.2,0.5,2.6,0.9,3.8c0.3,1.3,0.2,2.5,0.2,3.7
				c0,1-0.2,2.1,0,3.1c0.2,0.7-0.4,0.9-0.6,1.4c-0.1,0.3-0.2,0.6-0.4,0.9c0,0-0.1-0.1-0.3-0.3c0,0.4,0,0.8,0,1.2c0,0-0.1,0-0.1,0
				c0-0.1-0.1-0.2-0.2-0.4c-0.2,0.8-0.4,1.5-0.6,2.2c0,0-0.1,0-0.1,0c0-0.8,0-1.5,0-2.1C78.2,41.2,78,41.1,78,41
				c0-1.5,0-3.1-0.1-4.6c0-0.8-0.3-1.6-0.5-2.4c0-0.1-0.2-0.1-0.3-0.3c0-0.6-0.1-1.4-0.2-2.2c-0.1,0-0.3-0.2-0.6-0.3
				c0,0,0-0.1,0.1-0.1c0.1,0,0.2,0.1,0.4,0.2c-0.1-0.2-0.2-0.4-0.2-0.5c0.1,0,0.2-0.1,0.4-0.3c-0.3-0.3-0.6-0.6-0.9-0.9
				c0.4-0.2,0.7-0.5,0.6-1c0-0.1,0-0.3-0.1-0.3c-0.9-0.3-0.4-1.1-0.6-1.7c-0.1-0.3-0.3-0.6-0.5-0.9c0,0-0.1,0-0.1-0.1
				c-0.3-0.5-0.6-1-0.9-1.5c-0.1,0.1-0.2,0.1-0.1,0.1c-0.5-0.3-1-0.7-1.5-0.9c-0.7-0.3-1.4-0.4-2.1-0.5c0.1,0.1,0.2,0.3,0.3,0.4
				c0.1-0.1,0.2-0.1,0.3-0.2c0.2,0.2,0.5,0.3,0.8,0.6c-1,0-1.9,0.1-2.9,0.1c0-0.2,0-0.4,0.1-0.6c-0.1,0-0.3,0-0.4,0
				c0.2-0.1,0.3-0.2,0.5-0.3c-0.1-0.3-0.3-0.6-0.4-0.9c-0.1,0.1-0.2,0.3-0.3,0.4c-0.1,0.1-0.3,0.1-0.4,0.1c0.1,0.1,0.2,0.2,0.4,0.3
				c-0.1,0-0.2,0.1-0.3,0.2c0.2,0.1,0.4,0.1,0.6,0.2c-0.4,0-0.7-0.1-1.1-0.1c0-0.1,0-0.1,0-0.2c0.1,0,0.2-0.1,0.2-0.1
				c-0.2-0.2-0.3-0.5-0.5-0.6c-0.6-0.1-1,0.2-1,0.7c-0.9,0-1.7,0-2.4,0c-0.1,0,0,0,0.3,0.1c-0.7,0.1-1.4,0-1.8,0.3
				c-0.8,0.5-1.4,0.2-2.2,0.1c-0.8-0.1-1.5-0.2-2.2-0.6c-0.2-0.1-0.6,0-0.9,0.1c-0.2,0-0.4,0.1-0.6,0.1c-0.5,0.1-1,0.3-1.4,0.4
				c-0.8,0.2-1.5,0.4-2.3,0.6c-0.5,0.1-0.9,0.4-1.4,0.5c-0.8,0.1-1.6,0.7-2.4,0.4c-0.1,0-0.2,0.1-0.3,0.1c-0.8,0.7-1.6,1.4-2.3,2.2
				c0.1,0,0.2,0,0.4-0.1c-0.4,0.8-0.3,1.8-0.9,2.6c-0.1,0.1-0.3,0.5,0.2,0.7c0.1,0,0.1,0.4,0.1,0.4c-0.5,0.4-0.2,0.7,0.2,1
				c0.1,0.1,0.2,0.3,0.3,0.2c-0.1,0.3-0.2,0.7-0.3,1c-0.1-0.1-0.2-0.1-0.3-0.2c0.2,0,0.5-0.1,0.8-0.2c-0.3,0.4-0.5,0.8-0.7,1.2
				c0.6,0.6,0.6,0.9,0,1.5c-0.3,0.3-0.7,0.5-0.5,1.1c0,0-0.1,0.1-0.1,0.2c-0.1,0.3-0.2,0.6-0.1,1c0.1,0.7,0,1.4,0,2.1
				c0,0.9-0.1,1.7-0.1,2.6C45.2,43.1,45.2,44.1,45.2,45.1L45.2,45.1z"/>
			<path class="st2" d="M54,59.6c0.1-0.1,0.2-0.2,0.3-0.3c-0.2-0.1-0.3-0.1-0.5-0.2c0.5-0.3,0-1.3,1-1.3c0-0.1,0-0.3,0.1-0.6
				c0,0,0.1,0,0.1,0c0,0.4,0.1,0.8,0.1,1.3c-0.1,0.2-0.8,0.1-0.5,0.8c0.2-0.2,0.3-0.4,0.5-0.5c0.3,0.1,0.5,0.1,0.8,0.2
				c0,0.1,0,0.4,0,0.6c0.3,0.1,0.6,0.2,0.9,0.2c0,0.2,0,0.4,0,0.4c0.3,0,0.6,0,0.8,0.1c0.2,1-0.8,1.2-1,2.1c0.4-0.4,0.6-0.6,0.9-0.9
				c0.1,0.3,0.2,0.7,0.8,0.2c-0.2,0.3-0.2,0.5-0.4,0.7c0.2-0.1,0.4-0.2,0.5-0.3c0.2,0.3,0.4,0.7,0.6,1c-0.1,0.1-0.3,0.3-0.5,0.5
				c0.4,0,0.8,0,1.1,0.1c0,0.2-0.1,0.5-0.1,0.9c0.1-0.2,0.2-0.2,0.3-0.4c-0.1,0.3-0.1,0.5-0.1,0.7c0,0,0.1,0,0.1,0.1
				c0.2-0.4,0.4-0.7,0.6-1.3c0,0.4,0,0.6,0,0.8c0.4,0.2,1.1-0.1,1.2,0.7c1.1-0.2,0.3-0.9,0.6-1.4c0.5,0.3,0.7,0.1,0.8-0.4
				c0.3-0.1,0.2,0.8,0.6,0.1c0,0.3,0.1,0.5,0.1,0.8c-0.3-0.1-0.5-0.1-0.7-0.2c0,0.1,0,0.1,0,0.2c0.1,0,0.3,0.1,0.3,0.1
				c0,0.3,0,0.5,0,0.8c0.2-0.2,0.4-0.3,0.6-0.5c0,0,0-0.1,0-0.2c0.1,0,0.3-0.1,0.5-0.1c0,0.1,0.1,0.3,0.1,0.6
				c0.1-0.2,0.2-0.3,0.2-0.4c0.3,0,0.5,0.1,0.8,0.1c0,0.2-0.1,0.5-0.1,0.7c0,0,0.1,0,0.1,0c0.1-0.3,0.2-0.6,0.2-0.8
				c0.3,0,0.5-0.1,0.7-0.1c-0.1-0.2-0.1-0.4-0.2-0.7c0.2,0.1,0.4,0.1,0.5,0.2c0-0.2,0-0.4,0-0.5c0.3,0.1,0.7,0.3,1.1,0.4
				c0-0.5-0.1-0.7-0.1-1.1c0.4,0.3,0.8,0.5,1.1,0.7c-0.1-0.4-0.1-0.8-0.2-1.2c0,0,0.1-0.1,0.2-0.1c-0.4-0.3-0.1-1.1-1.1-1.2
				c0.3,0.4,0.6,0.8,0.8,1.1c-0.4,0.3-0.4,0.3-0.5-0.2c0-0.2-0.4-0.5-0.6-0.7c-0.2-0.2-0.2-0.4-0.4-0.6c0.4,0,0.7-0.1,1-0.1
				c-0.1-0.2-0.1-0.3-0.2-0.5c0.2-0.1,0.3-0.1,0.4-0.2c0.1-0.1,0.3-0.1,0.4-0.1c0,0.1-0.1,0.2-0.1,0.3c0,0.1,0,0.2,0,0.2
				c0,0.1,0.1,0.1,0.2,0.1c0.1-0.6,0.5,0,0.7-0.1c-0.1-0.4-0.2-0.8-0.3-1.2c0.2,0,0.5,0,0.7,0c0-0.1,0-0.1,0-0.2
				c-0.3,0-0.6-0.1-0.9-0.1c0,0,0-0.1,0-0.1c0.2-0.1,0.4-0.2,0.6-0.2c0.2,0.1,0.6,0.3,0.6,0.5c0.2,0.7,0.2,1.5,0.3,2.3
				c0,0.1,0.1,0.1,0.1,0.3c-0.2-0.1-0.3-0.2-0.5-0.3c0,0.1,0,0.2,0.1,0.2c0.2,0.1,0.3,0.3,0.5,0.4c0.4,0.2,0.5,0.5,0.2,1
				c0.1,0,0.3,0.1,0.5,0.1c-0.1-0.4-0.1-0.8-0.2-1.3c0.2,0.4,0.4,0.7,0.5,0.9c0.1,0,0.2-0.1,0.2-0.1c-0.1-0.3-0.3-0.5-0.4-0.8
				c0.3,0.1,0.8,0.1,0.9,0.3c0.2,0.3,0.1,0.7,0.1,1.1c0,0.2-0.2,0.4-0.3,0.6c-0.6,0.3-1.4,0.1-1.8,0.9c-0.2,0.3-0.8,0.5-1.1,0.5
				c-0.5,0-0.8,0.1-1,0.5c-0.1,0.2-0.3,0.4-0.5,0.7c-0.3-0.5-1.1-0.5-1.5,0c-0.2,0.2-0.4,0.5-0.6,0.7C65.4,67,65.1,67,65,67
				c-0.4-0.6-1.1-0.3-1.6-0.5c-0.3,0.8-0.5,0.8-1.3,0.5c-0.3-0.1-0.7-0.3-1-0.3c-0.2,0-0.4,0.2-0.7,0.4c-0.3-0.2-0.7-0.5-1.2-0.7
				c-0.3-0.1-0.6-0.1-0.9-0.2c-0.2-0.1-0.4-0.2-0.6-0.2c-0.5-0.2-0.9-0.4-1.4-0.5c-0.1,0-0.3,0.1-0.5,0.2c-0.6-0.2-1.2-0.4-1.8-0.7
				c-0.3-0.1-0.6-0.3-0.7-0.5c-0.2-0.6-0.7-0.8-1.2-1.1c-0.1-0.1-0.2-0.2-0.3-0.4c-0.8,0.1-1.7-0.1-2.3-0.8
				c-1.3-1.7-1.4-2.2-1.3-2.6c-0.3-0.5-0.6-0.9-0.8-1.3c0.4-0.5,0.7-0.8,1-1.2c0.3,0.3,0.3,1,0.9,0.5c0,0.1,0.1,0.2,0.1,0.2
				c-0.2,0.3-0.4,0.5-0.6,0.8c0.2,0,0.3,0.1,0.5,0c0.1,0,0.2-0.1,0.3-0.2c-0.3-0.4,0.2-0.5,0.2-0.8c-0.1,0-0.2,0-0.3,0.1
				c0.3-0.5,0.6-0.9,0.9-1.4c0-0.1,0.2-0.1,0.3-0.1c0,0.2,0,0.4,0,0.6c0.1,0.1,0.3,0.2,0.5,0.3c0.2-0.2,0.5-0.3,0.7-0.5
				c0.1,0.2,0.1,0.4,0.2,0.6c-0.2,0.1-0.4,0.2-0.8,0.5c0.4,0,0.5-0.1,0.8-0.1c-0.1,0.2-0.1,0.3-0.1,0.5c0.2-0.1,0.4-0.1,0.7-0.2
				c-0.1,0.3-0.1,0.5-0.2,0.8c-0.3,0.2-0.6,0.3-0.9,0.5c-0.1,0.1-0.2,0.3-0.2,0.4c0.2,0.3,0.4,0.5,0.6,0.8c0.2-0.2,0.3-0.5,0.5-0.7
				l0,0c0.5,0.6,0.5,0.6,0,0.8c0-0.1,0.1-0.2,0.1-0.5c-0.3,0.3-0.4,0.5-0.7,0.8c0.5-0.1,0.8-0.2,1.3-0.3c-0.3,0.3-0.6,0.5-0.9,0.7
				c0,0.1,0.1,0.1,0.1,0.2c0.4-0.1,0.8-0.3,1.2-0.4C54.2,60.6,54,60.1,54,59.6z M51.5,58.6c-0.6,0.1-1,0.1-1.4,0.2
				c-0.3,0.7,0.2,0.9,0.6,1.1c0.1-0.2,0.2-0.3,0.3-0.4c-0.1,0-0.1,0-0.2,0c0-0.2,0-0.4,0-0.6c0,0,0,0,0.1-0.1c0,0.1,0.1,0.2,0.2,0.4
				C51.2,59,51.3,58.9,51.5,58.6z"/>
			<path class="st2" d="M54.9,57.3C54.9,57.3,54.9,57.3,54.9,57.3c-0.3-0.3-0.3-0.8-0.7-1.1c0,0,0-0.2,0-0.2
				c0.3-0.3,0.2-0.3,0.2-0.6c0-0.2,0.1-0.3,0.1-0.5c0.2-0.3,0.4-0.7,0.6-1c0,0,0.1,0.2,0.2,0.3c0.1-0.1,0.1-0.1,0.1-0.1
				c0-0.4,0-0.7,0.5-0.7c0.2,0,0.5-0.2,0.7-0.4c0.3-0.4,0.8,0.2,1.2-0.4c0.2-0.3,0.7-0.3,1.1-0.4c0.1,0.3,0.1,0.6,0.2,0.8
				c0.1,0,0.1,0,0.2,0c0-0.4,0-0.7,0-1.1c0-0.1-0.2-0.2-0.3-0.3c-0.5-0.3-0.3-0.5,0.1-0.8c-0.4-0.4-0.7-0.7-1.1-1.1
				c-0.5-0.4-0.6-0.9-0.5-1.7c0.2,0.5,0.3,0.8,0.3,1c0.7-0.3,1.3-0.6,2-0.7c0.3-0.1,0.8,0.2,0.9,0.4c0.2,0.4,0.5,0.5,0.9,0.5
				c0.1,0,0.2,0,0.2,0.1c0.5,0.6,0.6,0.6,1.3,0.3c0.4-0.2,0.9-0.1,1-0.8c0.1-0.4,0.8-0.1,1.2,0.1c0.1,0,0.1,0.1,0.2,0.1
				c0.2,0.1,0.4,0.2,0.5,0.3c-0.2,0.2-0.3,0.4-0.5,0.6c-0.3,0.2-0.7,0.6-1.2,0.3c0,0.1-0.2,0.3-0.1,0.3c0.1,0.2,0.2,0.3,0.4,0.4
				c0-0.1,0.1-0.2,0.2-0.4c0.1,0.3,0.1,0.5,0.1,0.6c0.2,0,0.4,0.1,0.7,0.1c-0.1,0.3-0.2,0.6-0.3,1l0,0c-0.4,0-0.8,0-1.3,0
				c0.2,0.4,0.3,0.7,0.3,1c0.2,0.1,0.5,0.2,0.8,0.3c0,0.1-0.1,0.1-0.1,0.2c-0.6-0.4-0.7-0.3-1,0.2c-0.3-0.4,0.2-1.2-0.8-1.2
				c0,0.1,0,0.2,0,0.2c0,0.1,0.2,0.3,0.2,0.3c-0.2,0.2-0.4,0.5-0.6,0.5c-0.3,0-0.8-0.1-1.1-0.3c-0.4-0.3-0.5-0.2-0.6,0.2
				c-0.4-0.6-1-0.5-1.4,0c-0.1,0.2-0.4,0.2-0.6,0.3c-0.1-0.3-0.1-0.5-0.2-0.7c-0.1,0-0.1,0-0.2,0c0,0.3,0,0.5,0,0.8
				c-0.1,0-0.1,0-0.2,0c-0.4-0.2-0.5-0.1-0.8,0.1c-0.5,0.3-1,0.5-1.6,0.7c0.1,0.4,0.1,0.4,0.7,0.3c1.2-0.2,2.5-0.3,3.7-0.4
				c0.1,0,0.2,0,0.3,0c0.7,0.7,1.4,0.2,2.1,0c0.9-0.2,1.8,0.1,2.7,0.3c0.4,0.1,0.7,0.2,1.1,0.3c0.2,0,0.5-0.3,0.5-0.4
				c0-0.2-0.2-0.4-0.4-0.6c-0.2-0.2-0.4-0.3-0.4-0.5c0.2,0.1,0.4,0.1,0.6,0.2c0-0.1,0-0.2-0.1-0.4c0.1,0,0.2-0.1,0.2-0.1
				c0.4,0,0.8-0.1,1.2-0.1c0,0.8,0.9,0.4,1.2,0.7c-0.2,0.2-0.4,0.3-0.4,0.4c0.2,0.3,0.4,0.4,0.5,0.6c-0.5,0.7,0.1,1.3,0.2,2
				c-0.9-1-1.8-1.4-3-1c-0.2,0.1-0.5,0-0.8,0c-0.3,0-0.5,0.1-0.8,0.2c-0.3-0.1-0.6-0.5-1.1-0.1c-0.1,0.1-0.4-0.1-0.5-0.1
				c-1,0.1-2,0.3-3,0.2c-1.1-0.1-2.2,0-3.2,0c-0.2,0-0.5,0-0.7-0.1c-0.6-0.4-1,0.2-1.5,0.1C55.3,56.7,55.1,57.1,54.9,57.3z"/>
			<path class="st2" d="M51.3,41.8c-0.1-0.2-0.2-0.4-0.3-0.4c-0.7,0.2-1.3,0.3-1.9,0.5c0,0,0,0,0-0.1c0.2-0.1,0.4-0.3,0.6-0.4
				c0.2-0.1,0.4-0.3,0.5-0.4c0.2-0.2,0.3-0.4,0.4-0.8c-0.6,0.8-1.3,1.1-2.4,1c0.4-0.4,0.8-0.8,1.1-1c-0.2-0.2-0.4-0.6-0.7-0.9
				c0,0,0,0,0,0c-0.2-0.2-0.5-0.4-0.5-0.7c0-0.3,0.1-0.7,0.3-0.8c0.3-0.3,0.6-0.6,1.2-0.6c0.4,0,0.9-0.6,1.4-0.7
				c0.9-0.3,1.9-0.7,2.9-0.3c0.5,0.2,1.1,0,1.6,0c0.7,0,1.4,0,2.2,0.1c0.4,0.1,0.8,0,1.2,0.1c0.4,0.1,0.9,0.2,1.2,0.3
				c0.5,0.2,0.5,1,0.1,1.4c-0.1,0.1-0.2,0.3-0.2,0.5c0.3,0.9,0.2,1.6-0.4,2.2c-0.1-0.2-0.2-0.5-0.2-0.6c-0.5-0.2-0.8-0.3-1.2-0.5
				c0.1,0.2,0.3,0.4,0.4,0.7c-0.7,0.4-1.3,0.5-2.1,0.2c0.2-0.2,0.4-0.3,0.5-0.5c-0.3-0.2-0.5-0.4-0.8-0.6c0,0.2,0,0.4-0.1,0.5
				c-0.2,0.7-0.6,1-1.8,1c-0.4,0-0.8-0.1-1.1-0.2c-0.2,0-0.5,0-0.8,0c0.2,0.2,0.4,0.4,0.5,0.6c0,0,0,0,0,0
				C52.4,41.7,51.9,41.7,51.3,41.8z M55.5,39.1c0-0.1,0-0.2,0-0.3c-0.7-0.1-1.4-0.2-2-0.2c-0.6,0-1.8,0.8-1.9,1.3
				C52.9,39.7,54,38.6,55.5,39.1z"/>
			<path class="st2" d="M65.9,39.7c-0.6,0-1.2,0-1.8,0c0.1-0.4,0-0.8,0.2-1c0.5-0.5,0-0.8-0.2-1.2c-0.1-0.3-0.2-0.4-0.2-0.8
				c0-0.5,0.3-0.6,0.5-0.9c0.1,0.3,0.3,0.5,0.5,0.9c-0.1-0.5-0.2-0.8-0.3-1.3c0.3,0.5,0.5,0.7,0.7,1c0.3-0.2,0.5-0.4,0.9-0.7
				c0.6-0.1,1.4-0.2,2.3-0.3c-0.2,0.2-0.3,0.3-0.4,0.4c0,0,0,0.1,0.1,0.1c0.2-0.1,0.5-0.3,0.7-0.3c0.6,0,1.3,0.2,1.9,0.2
				c1.2-0.2,2.1,0.4,3.1,0.8c0.5,0.2,0.9,0.4,1.4,0.6c-0.1,0.1-0.1,0.2-0.1,0.2c0.3,0.2,0.5,0.3,0.8,0.5c-0.8,0.3-1.5,0.6-2.3,0.9
				c0.5,0.6,0.9,1.1,1.3,1.6c0,0-0.1,0.1-0.1,0.1c-0.4-0.3-0.8-0.6-1.3-1c0.1,0.3,0.3,0.5,0.4,0.7c-1.2-1.8-2.7-2.5-4.8-1.6
				c1.9,0.1,3.5,0.8,4.8,2.1c0,0.1,0,0.2-0.1,0.2c-0.3-0.1-0.7-0.1-1-0.2c-0.4,0.7-0.8-0.5-1.3,0.1c0.1-0.3,0.1-0.5,0.2-0.6
				c-0.2,0-0.3-0.1-0.5-0.2c-0.1,0.2-0.1,0.5-0.3,0.9c-0.6-0.1-1.2,0-1.8-0.2c-0.8-0.2-1.7,0-2.5,0C66,40.5,65.8,40.2,65.9,39.7z"/>
			<path class="st2" d="M65,60.6c0.1,0.1,0.2,0.2,0.3,0.4c-0.5-0.2-0.9,0-0.9,0.5c-0.4-0.6-0.9-0.2-1.4-0.2c-0.2,0-0.4,0.1-0.7,0
				c-0.3-0.2-0.8-0.2-1.1,0c-0.5,0.3-0.8-0.1-1.3,0c-0.3,0.1-0.5,0.1-0.7,0.2c0-0.1-0.1-0.1-0.1-0.2c0.1-0.1,0.3-0.1,0.5-0.3
				c-0.8-0.5-1.5-1.1-2.1-1.7c0.4-0.1,0.6-0.2,0.8-0.1c0.4,0,0.9,0.1,1.3,0.2c0.5,0.1,0.8,0.1,1.1-0.4c0.2-0.3,0.7-0.3,1.1-0.4
				c0.8-0.3,1.5,0.3,2.2,0.5c0.1,0,0.1,0.2,0.1,0.2c0.3,0,0.6-0.1,0.9-0.1c0.2,0,0.4,0,0.5,0c0.2,0,0.4,0.1,0.4,0.3
				c0,0.1,0,0.3-0.1,0.4C65.5,60.2,65.3,60.4,65,60.6z"/>
			<path class="st2" d="M45.2,45.1c0.1,0.2,0.2,0.3,0.3,0.5c0.1,1,0.3,1.9,0.3,2.9c0,0.5,0.5,0.9,0.3,1.5c0.7,0.4,0.2,1.6,1.1,1.9
				c0.1,0,0,0.3,0.1,0.5c0,0,0.2-0.1,0.4-0.1c0,0,0,0.1,0,0.1c-0.1,0-0.2,0.2-0.2,0.1c-0.2,0-0.5-0.1-0.7-0.2c0,0.5,0.8,1.2,0,2
				c0.1-0.1,0.3-0.1,0.4-0.2c0.1-0.1,0.3-0.1,0.4-0.2c0,0.2,0,0.5,0,0.7c-0.1,0.2-0.1,0.8,0,1c0.1,0.2,0.1,0.4,0.1,0.7
				c-0.1,0-0.3,0-0.5,0c0,0,0,0.1,0,0.1c0.2,0.1,0.4,0.2,0.6,0.2c0.2,0,0.4-0.3,0.4-0.4c-0.1-0.7,0.1-0.9,0.9-1
				c-0.2,0.1-0.3,0.2-0.4,0.3c-0.1,0.1-0.2,0.1-0.3,0.2c0.4,0.9,0.4,0.9-0.8,1.9c-0.5-0.6-0.7-1.2-0.6-2c0-0.3-0.1-0.7-0.3-1
				c-0.1-0.1-0.3-0.2-0.5-0.3c-0.4-0.1-0.7-0.2-0.6-0.8c0.6,0.2,0.7-0.2,0.6-0.6C46,51.9,45.8,51,45.7,50c-0.2-1.4-0.3-2.8-0.4-4.3
				C45.2,45.6,45.2,45.3,45.2,45.1C45.2,45.1,45.2,45.1,45.2,45.1z"/>
			<path class="st2" d="M74.9,58.8c0.1-0.2,0.2-0.4,0.4-0.7c0.7,1,0.7,1.5,0,1.7c0,0.6,0,1.2-0.6,1.6c-0.1,0.1-0.2,0.3-0.3,0.5
				c-0.3,0.7-0.3,0.7-1.6,0.9c-0.1-0.3-0.1-0.6-0.2-0.9c0-0.1-0.2-0.2-0.3-0.3c-0.1-0.1-0.1-0.3-0.1-0.4c0,0,0.2-0.1,0.2-0.1
				c0.1,0.1,0.2,0.2,0.2,0.3c0.1,0.1,0.1,0.2,0.1,0.3c0.2-0.3,0.3-0.6,0.5-0.9c0.1,0.4,0.1,0.7,0.1,1.1c0,0,0.1,0,0.1,0
				c0-0.2,0.1-0.4,0-0.6c0-0.5-0.3-1,0.5-1.3c0.3-0.1,0.4-0.6,0.6-1C74.8,59,74.9,58.9,74.9,58.8c0.2,0.5-0.9,0.9-0.2,1.4
				c0.3-0.5,0.5-0.9,0.7-1.3C75.3,58.9,75.1,58.9,74.9,58.8z"/>
			<path class="st2" d="M68.7,41.8c0.1-0.5,0.4-0.7,0.9-0.7c0.5,0,1.1,0,1.6,0c-0.1,0.6-0.5,0.4-0.9,0.3c-0.1,0.3-0.2,0.7-0.7,0.1
				c0,0.1,0,0.2,0,0.3c0.4,0.2,0.8,0.3,1.3,0.5c-0.2,0.1-0.3,0.1-0.5,0.2c0,0,0,0.1,0,0.1c0.4,0,0.7,0,1.1,0c-0.9,0.4-1.9,0.2-2.8,0
				c-0.8-0.2-1.6-0.6-2.4-0.9c0-0.5,0-0.5,0.5-0.4c0.5,0.1,1,0.2,1.5,0.3c0-0.2,0.1-0.4,0.2-0.8C68.6,41.2,68.6,41.5,68.7,41.8z"/>
			<path class="st2" d="M43.1,42.2c-0.2,1-0.3,2.1-0.5,3c-0.4-1.5-0.9-3-1.3-4.6c1.8,0.6,2.4,0.9,2.5,2.2c-0.2,0-0.4-0.1-0.6-0.2
				c0-0.1,0-0.2,0-0.4C43.2,42.2,43.1,42.2,43.1,42.2z"/>
			<path class="st2" d="M55.8,42.7c-0.5,0.2-0.9,0.4-1.4,0.5c-0.5,0.1-1,0.1-1.4,0c-0.4-0.1-0.8-0.4-1.1-0.6
				c0.4-0.1,0.8-0.3,1.2-0.5c0-0.1-0.1-0.3-0.2-0.5c0,0,0,0,0,0c0.6,0,1.2,0,1.8,0c0,0,0.1,0.5,0,0.8c-0.1,0.1-0.4,0.1-0.6,0.2
				c0.2-0.2,0.4-0.4,0.6-0.6c0,0-0.1-0.1-0.1-0.1c-0.3,0.5-0.6,0.5-1,0c-0.1,0.2-0.2,0.3-0.2,0.5c0.2,0.1,0.5,0.2,0.7,0.2
				c-0.1,0.1-0.1,0.2-0.2,0.4c0.5-0.1,1-0.2,1.5-0.2C55.5,42.7,55.6,42.7,55.8,42.7z"/>
			<path class="st2" d="M82.3,39.6c-0.1,1.3-0.3,2.6-0.4,4c-0.1-0.7-0.1-1.2-0.2-1.7c-0.1-0.4,0-0.8-0.6-0.8c0,0,0-0.1,0-0.2
				C81,40.2,81.7,39.6,82.3,39.6z"/>
			<path class="st2" d="M77.9,51.2c-0.1,0-0.3-0.1-0.5-0.1c0,0,0,0.2-0.1,0.4c-0.1-0.1-0.2-0.1-0.2-0.2c0.1-0.5,0.1-1.1,0.3-1.3
				c0.9-0.9,0.3-2.1,1-2.9C78.3,48.4,78.1,49.8,77.9,51.2z"/>
			<path class="st2" d="M79.5,45.1c-0.3-0.2-0.4-0.3-0.5-0.4c0,0.1-0.1,0.1-0.1,0.2c-0.1-0.2-0.2-0.4-0.3-0.6c0.3-0.3,0.7-0.7,1-1
				c0.1,0.1,0.2,0.1,0.3,0.2C79.7,44,79.6,44.5,79.5,45.1z"/>
			<path class="st2" d="M53.2,59.3c-0.1,0.4-0.5,0-0.7,0.1l0,0c-0.3-0.1-0.6-0.3-0.9-0.4c0.3-0.2,0.6-0.3,0.9-0.5c0.2,0,0.5,0,0.8,0
				C53.3,58.8,53.3,59,53.2,59.3z"/>
			<path class="st2" d="M55.8,42.7c-0.1,0-0.3,0-0.4,0c0.1-0.1,0.3-0.4,0.4-0.4c0.5,0,0.9-0.2,1.3-0.5c0,0,0.2,0.1,0.4,0.3
				C56.9,42.3,56.3,42.5,55.8,42.7z"/>
			<path class="st2" d="M65.5,52.3c0.2,0.2,0.3,0.5,0.5,0.7c0.2,0.2,0.4,0.3,0.6,0.6c-0.1,0-0.2-0.1-0.4-0.2c0,0.3,0.1,0.5,0.1,0.8
				c-0.3-0.6-0.6-1-0.8-1.4c-0.1,0-0.1,0-0.2,0.1C65.4,52.7,65.4,52.5,65.5,52.3C65.5,52.3,65.5,52.3,65.5,52.3z"/>
			<path class="st2" d="M67.5,53.8c-0.1,0-0.2,0.1-0.2,0.1c-0.3-0.4-0.6-0.8-0.9-1.1C67.2,52.8,67.4,53,67.5,53.8z"/>
			<path class="st2" d="M65.5,62.3c0.1-0.2,0.2-0.4,0.3-0.6c0.1,0.1,0.2,0.3,0.3,0.4c0.1-0.1,0.2-0.3,0.3-0.5c0,0.3,0.1,0.4,0.1,0.6
				c-0.1,0-0.1,0-0.2,0c0.1,0.1,0.2,0.1,0.4,0.2c0-0.2,0-0.4,0.1-0.5c0,0,0.1,0,0.1,0c0,0.2,0,0.4,0,0.7
				C66.3,62.5,65.9,62.4,65.5,62.3L65.5,62.3z"/>
			<path class="st2" d="M72.4,59.8c0.9,0.5,0.9,0.5,0.4,1.2C72.7,60.6,72.6,60.3,72.4,59.8z"/>
			<path class="st2" d="M65.4,62.3c0.4,0.1,0.7,0.4,0.9,0.9c0,0.1,0,0.3,0,0.4c-0.1,0-0.2,0-0.2,0.1c-0.1-0.3-0.2-0.6-0.4-1
				c0,0-0.2-0.1-0.4-0.1C65.4,62.4,65.4,62.4,65.4,62.3C65.5,62.3,65.4,62.3,65.4,62.3z"/>
			<path class="st2" d="M76.3,57.5c-0.7-0.6,0.4-1.1,0.3-1.6c0,0.2,0,0.4,0,0.6C76.6,56.8,76.4,57.1,76.3,57.5z"/>
			<path class="st2" d="M43.6,51.6c-0.6-0.3-0.8-0.7-0.7-1.5c0.1,0.4,0.2,0.7,0.4,1.1c0,0,0.2-0.1,0.3-0.1
				C43.6,51.3,43.6,51.4,43.6,51.6z"/>
		</g>
	</g>
</g>
</svg>
